{"title":"The Muppets 2011 DVDSCR XViD - INSPiRAL","uid":7042594,"size":1571880035,"categoryP":"video","categoryS":"movies","magnet":"?xt=urn:btih:683cc485c57423f6eac973fedefecd0dae312a25&amp;dn=The+Muppets+2011+DVDSCR+XViD+-+INSPiRAL&amp;tr=udp%3A%2F%2Ftracker.openbittorrent.com%3A80&amp;tr=udp%3A%2F%2Fopen.demonii.com%3A1337&amp;tr=udp%3A%2F%2Ftracker.coppersurfer.tk%3A6969&amp;tr=udp%3A%2F%2Fexodus.desync.com%3A6969","seeders":1,"leechers":0,"uploader":"HeroMaster","files":-1,"time":1329606682,"description":"The Muppets 2011 DVDSCR XViD - INSPiRAL\n\nIMDB: \n &lt;a href=&quot;\nhttp://www.imdb.com/title/tt1204342/&quot; rel=&quot;nofollow&quot; target=&quot;_NEW&quot;&gt;\nhttp://www.imdb.com/title/tt1204342/&lt;/a&gt;\n\n\nSOURCES:\n\nVIDEO - Deadpool THANKS\nAUDIO - Deadpool THANKS\nSUBS  - None Add\n\n\nSTATS:\n\nVideo\nID                               : 0\nFormat                           : MPEG-4 Visual\nFormat profile                   : Advanced Simple@L5\nFormat settings, BVOP            : 2\nFormat settings, QPel            : No\nFormat settings, GMC             : No warppoints\nFormat settings, Matrix          : Default (MPEG)\nMuxing mode                      : Packed bitstream\nCodec ID                         : XVID\nCodec ID/Hint                    : XviD\nDuration                         : 1h 42mn\nBit rate                         : 1 808 Kbps\nWidth                            : 720 pixels\nHeight                           : 384 pixels\nDisplay aspect ratio             : 1.875\nFrame rate                       : 23.976 fps\nColor space                      : YUV\nChroma subsampling               : 4:2:0\nBit depth                        : 8 bits\nScan type                        : Progressive\nCompression mode                 : Lossy\nBits/(Pixel*Frame)               : 0.273\nStream size                      : 1.30 GiB (90%)\nWriting library                  : XviD 64\n\nAudio\nID                               : 1\nFormat                           : MPEG Audio\nFormat version                   : Version 1\nFormat profile                   : Layer 3\nCodec ID                         : 55\nCodec ID/Hint                    : MP3\nDuration                         : 1h 42mn\nBit rate mode                    : Constant\nBit rate                         : 192 Kbps\nChannel(s)                       : 2 channels\nSampling rate                    : 48.0 KHz\nCompression mode                 : Lossy\nStream size                      : 141 MiB (10%)\nAlignment                        : Split accross interleaves\nInterleave, duration             : 42 ms (1.00 video frame)\nInterleave, preload duration     : 500 ms\nWriting library                  : LAME3.98.4\n\n\nNOTES:\n\nSources:\nSome nice sweet ass vobs .....audio was pcm and the video looked bang on,fine tuning needed but nothing more.\n\nWorkdone:\nJust a simple rip with some minor tweaks ...chorma,contrast,fix ivtc and thats its really folks.\nEncoded the pcm audio to mp3 and remuxed back to our rip...\n\nmuppets,rollin back the yrs lol.\n\n\nPoster:\n\n &lt;a href=&quot;\nhttp://i.imgur.com/MZhjL.jpg&quot; rel=&quot;nofollow&quot; target=&quot;_NEW&quot;&gt;\nhttp://i.imgur.com/MZhjL.jpg&lt;/a&gt;\n\n\nScreens:\n\n &lt;a href=&quot;\nhttp://i.imgur.com/leGcs.png&quot; rel=&quot;nofollow&quot; target=&quot;_NEW&quot;&gt;\nhttp://i.imgur.com/leGcs.png&lt;/a&gt;\n\n &lt;a href=&quot;\nhttp://i.imgur.com/ePO7R.png&quot; rel=&quot;nofollow&quot; target=&quot;_NEW&quot;&gt;\nhttp://i.imgur.com/ePO7R.png&lt;/a&gt;\n\n &lt;a href=&quot;\nhttp://i.imgur.com/aDW3P.png&quot; rel=&quot;nofollow&quot; target=&quot;_NEW&quot;&gt;\nhttp://i.imgur.com/aDW3P.png&lt;/a&gt;\n\n\nENJOY!","torrent":{"xt":"urn:btih:683cc485c57423f6eac973fedefecd0dae312a25","amp;dn":"The+Muppets+2011+DVDSCR+XViD+-+INSPiRAL","amp;tr":["udp%3A%2F%2Ftracker.openbittorrent.com%3A80","udp%3A%2F%2Fopen.demonii.com%3A1337","udp%3A%2F%2Ftracker.coppersurfer.tk%3A6969","udp%3A%2F%2Fexodus.desync.com%3A6969"],"infoHash":"683cc485c57423f6eac973fedefecd0dae312a25","infoHashBuffer":{"type":"Buffer","data":[104,60,196,133,197,116,35,246,234,201,115,254,222,254,205,13,174,49,42,37]},"announce":[],"urlList":[]}}